Coordinates
version=1
nRows=14
nColumns=36
inDegrees=yes

Units are S.I. units (second, meters, Newtons, ...)
If the header above contains a line with 'inDegrees', this indicates whether rotational values are in degrees (yes) or radians (no).

endheader
time	pelvis_tilt	pelvis_list	pelvis_rotation	pelvis_tx	pelvis_ty	pelvis_tz	hip_flexion_r	hip_adduction_r	hip_rotation_r	knee_angle_r	knee_angle_r_beta	ankle_angle_r	subtalar_angle_r	mtp_angle_r	hip_flexion_l	hip_adduction_l	hip_rotation_l	knee_angle_l	knee_angle_l_beta	ankle_angle_l	subtalar_angle_l	mtp_angle_l	lumbar_extension	lumbar_bending	lumbar_rotation	arm_flex_r	arm_add_r	arm_rot_r	elbow_flex_r	pro_sup_r	arm_flex_l	arm_add_l	arm_rot_l	elbow_flex_l	pro_sup_l
      0.00000000	     14.35641424	      8.84262525	      3.42038649	      0.06377304	      0.93290650	      0.11620042	    -24.45794257	     -6.67455563	     -0.95988198	      0.20462175	      0.00357132	      9.69757456	    -22.00998215	     -6.39880246	    -23.15011918	      0.59494528	     32.91478318	      0.75414069	      0.01316224	     -0.45818166	    -34.72467359	     -6.39880246	    -34.99331898	    -10.33994869	      4.61915406	      4.92415873	     -3.47222257	      4.45010784	     31.96257445	     77.22898259	     21.57775182	     -6.26500725	     42.13582885	     22.03213928	     65.16337933
      0.01666670	      9.19016109	      6.69283216	      5.33987319	      0.06947214	      0.91837520	      0.11212190	    -20.09834998	     -5.36362495	      2.23810257	      0.35558335	      0.00620610	      8.34339216	    -20.81353348	     -6.48802743	    -17.29868687	     -0.63826203	     35.11640602	      1.95371723	      0.03409880	      2.15757133	    -34.69108575	     -6.48802743	    -26.65265301	     -7.35163056	      4.00146901	      3.66076702	     -3.59935251	      6.61955852	     30.06836738	     77.74264516	     19.40427532	     -6.63278182	     44.03978615	     21.56594335	     65.96256778
      0.03333330	      6.38804220	      5.31111662	      5.67527291	      0.06857795	      0.90994224	      0.11138243	    -17.18445986	     -4.86297552	      3.67686083	      0.34450441	      0.00601274	     11.14184797	    -18.95980730	     -6.52593017	    -14.65547668	     -1.85996565	     34.79220188	      2.30375964	      0.04020819	      3.49728848	    -34.65431914	     -6.52593017	    -21.82198137	     -6.22985062	      3.79083269	      3.12671598	     -3.85091922	      8.23796789	     29.81636907	     78.06266578	     18.41322808	     -7.13767068	     45.53628708	     21.17125312	     66.46128626
      0.05000000	      5.17851806	      4.16708385	      6.12384447	      0.07146303	      0.90777744	      0.11117036	    -16.04870912	     -3.70357547	      4.18630030	      0.34750638	      0.00606513	     13.63489683	    -16.24527286	     -6.78800686	    -13.84447823	     -3.15878367	     34.73712314	      2.18754917	      0.03817994	      4.04666635	    -34.60701638	     -6.78800686	    -18.90450651	     -5.40169187	      3.07418359	      3.91580153	     -4.47068822	     15.39813576	     27.06590335	     78.06809171	     18.25624132	     -7.38495956	     51.82798870	     18.80949712	     67.81086272
      0.06666670	      4.25054125	      2.74931010	      6.18302330	      0.07161426	      0.90390577	      0.11081049	    -14.94220720	     -2.08996399	      5.04246191	      0.36425636	      0.00635747	     15.14144777	    -15.34140419	     -6.90303549	    -13.49150787	     -4.65315432	     34.26047233	      2.15402970	      0.03759491	      4.76643154	    -34.54998028	     -6.90303549	    -16.68333080	     -4.03045640	      2.98680527	      3.97842655	     -4.82573126	     17.65579559	     26.14400061	     77.88942910	     17.58175259	     -7.00163188	     53.78476895	     17.54395996	     67.72230465
      0.08333330	      3.63301506	      1.74723026	      6.19509956	      0.07033444	      0.90240495	      0.11059070	    -14.07770086	     -0.87280273	      5.48958605	      0.38695251	      0.00675360	     16.26075907	    -14.56296411	     -6.97319793	    -13.24944052	     -5.71088870	     33.82826562	      2.04698860	      0.03572669	      5.10617772	    -34.49586066	     -6.97319793	    -15.24427018	     -3.06024700	      2.92387999	      4.12152618	     -4.88087615	     18.14515742	     25.48185656	     77.19536694	     17.09947098	     -6.59793355	     53.60939419	     16.70774177	     67.27733977
      0.10000000	      2.88059802	      1.03261399	      5.89438261	      0.07033370	      0.90110347	      0.11054333	    -13.01467069	     -0.13537260	      6.71265122	      0.39891640	      0.00696240	     16.47822547	    -15.10098921	     -7.04209538	    -12.58631889	     -6.36888942	     33.25551035	      1.75633365	      0.03065381	      4.89645177	    -34.44177920	     -7.04209538	    -13.85988936	     -2.42057305	      3.07793214	      4.35148495	     -5.15333746	     19.91571354	     24.82620790	     76.88739783	     16.70371788	     -6.21913065	     53.66988475	     16.06284717	     66.86002736
      0.11666670	      2.39198876	      0.63308969	      5.67285602	      0.06825625	      0.89971511	      0.11026779	    -12.25093770	      0.24876287	      7.47444461	      0.40322525	      0.00703761	     16.62564424	    -15.36056729	     -7.15913024	    -12.00296357	     -6.70193400	     32.84951463	      1.54329923	      0.02693565	      4.50930230	    -34.39397731	     -7.15913024	    -13.07917086	     -2.11766726	      3.15670757	      4.71249939	     -5.34560613	     21.93618774	     24.39871818	     76.30510848	     16.50024701	     -6.05577279	     53.04425044	     15.92236197	     66.32321117
      0.13333330	      1.87955679	      0.29801769	      5.49153848	      0.06714021	      0.89841457	      0.11046181	    -11.38541079	      0.57955536	      8.20386837	      0.42123929	      0.00735201	     16.47161289	    -16.17950587	     -7.18206504	    -11.50589666	     -6.99026692	     32.50425726	      1.45633714	      0.02541788	      4.37599681	    -34.32912557	     -7.18206504	    -12.28309588	     -1.74233459	      3.17287039	      4.94002209	     -5.37151943	     22.01680343	     24.03704932	     76.44736622	     16.22351725	     -5.91034017	     52.06112585	     15.90632847	     66.23396561
      0.15000000	      1.37275220	     -0.21888642	      5.57081604	      0.06474545	      0.89888163	      0.10988450	    -10.56310813	      1.14876116	      8.76678440	      0.46613495	      0.00813559	     16.07567870	    -17.17374300	     -7.25678490	    -11.20126863	     -7.62193891	     32.34959774	      1.50011687	      0.02618198	      4.54903359	    -34.23809464	     -7.25678490	    -11.52544427	     -1.13305195	      3.01880894	      5.16211750	     -5.51019775	     22.62631254	     23.78578207	     76.14264269	     15.92641363	     -5.70423541	     50.10420645	     16.06703505	     65.94899316
      0.16666670	      0.93562672	     -0.70155324	      5.58217953	      0.06484102	      0.89708731	      0.10903548	     -9.85787356	      1.60716881	      9.26310232	      0.52261910	      0.00912142	     15.50919406	    -18.43601456	     -7.31595740	    -10.85798931	     -8.11649352	     32.20189466	      1.48416804	      0.02590362	      4.68043303	    -34.14789785	     -7.31595740	    -10.94184302	     -0.46045519	      2.79462894	      5.31709273	     -5.66725001	     22.87336678	     23.72397327	     76.72802242	     15.47999574	     -5.56947939	     47.72541819	     16.50650550	     66.30030729
      0.18333330	      0.41499548	     -1.19405674	      5.71975010	      0.06284696	      0.89817907	      0.10875340	     -9.03132696	      2.14956900	      9.57150171	      0.60438948	      0.01054859	     14.87902885	    -19.55835827	     -7.32399125	    -10.62045201	     -8.78141037	     32.14754600	      1.54634699	      0.02698885	      5.05266066	    -33.99205031	     -7.32399125	    -10.12224656	      0.12690323	      2.55914166	      5.24701993	     -5.79067638	     22.73524203	     23.93511936	     76.25800149	     15.24003452	     -5.36877501	     46.76577206	     16.43732509	     66.07178588
      0.20000000	     -0.08396684	     -1.81393898	      5.64569289	      0.06275248	      0.89939584	      0.10825473	     -8.23216139	      2.71534746	     10.14084333	      0.69938355	      0.01220655	     13.82061072	    -21.27404015	     -7.46539718	    -10.41617656	     -9.48638403	     31.91079946	      1.53756343	      0.02683554	      5.44215668	    -33.80410492	     -7.46539718	     -9.37379409	      1.01604700	      2.08787914	      5.72305400	     -6.20573044	     25.68270593	     23.56781226	     72.85751552	     14.49093448	     -5.29145136	     44.10974007	     17.10444907	     66.56911670
      0.21666670	     -0.47107374	     -2.12485579	      5.70460967	      0.06121596	      0.89916239	      0.10773463	     -7.53130792	      2.91985156	     10.13327537	      0.74514758	      0.01300528	     13.11157368	    -21.80463264	     -7.49757935	     -9.83495354	     -9.78433601	     31.85478801	      1.38551901	      0.02418187	      5.15108049	    -33.66389566	     -7.49757935	     -8.97668318	      1.39813357	      2.32231763	      5.21829173	     -6.13178969	     21.62802794	     24.13352723	     78.94094494	     14.59209025	     -4.87401958	     42.91901108	     16.69429664	     69.30752355
